<mxfile host="app.diagrams.net" modified="2022-10-16T06:57:40.941Z" agent="5.0 (Windows NT 10.0; Win64; x64) AppleWebKit/537.36 (KHTML, like Gecko) Chrome/106.0.0.0 Safari/537.36" etag="-aVX9ck_F6C6mGCm0rIt" version="20.4.1" type="github">
  <diagram id="6a731a19-8d31-9384-78a2-239565b7b9f0" name="Page-1">
    <mxGraphModel dx="996" dy="640" grid="1" gridSize="10" guides="1" tooltips="1" connect="1" arrows="1" fold="1" page="1" pageScale="1" pageWidth="1169" pageHeight="827" background="none" math="0" shadow="0">
      <root>
        <mxCell id="0" />
        <mxCell id="1" parent="0" />
        <mxCell id="zmOrE4_H3WfP_13LB3If-57" value="" style="edgeStyle=orthogonalEdgeStyle;rounded=0;orthogonalLoop=1;jettySize=auto;html=1;fontFamily=Garamond;fontSize=18;" parent="1" source="zmOrE4_H3WfP_13LB3If-55" target="zmOrE4_H3WfP_13LB3If-56" edge="1">
          <mxGeometry relative="1" as="geometry" />
        </mxCell>
        <mxCell id="zmOrE4_H3WfP_13LB3If-55" value="&lt;font style=&quot;font-size: 18px;&quot;&gt;旅客信息&lt;/font&gt;" style="shape=parallelogram;perimeter=parallelogramPerimeter;whiteSpace=wrap;html=1;fixedSize=1;fontFamily=Garamond;fontSize=18;" parent="1" vertex="1">
          <mxGeometry x="370" y="7" width="120" height="60" as="geometry" />
        </mxCell>
        <mxCell id="zmOrE4_H3WfP_13LB3If-61" style="edgeStyle=orthogonalEdgeStyle;rounded=0;orthogonalLoop=1;jettySize=auto;html=1;entryX=0;entryY=0.5;entryDx=0;entryDy=0;entryPerimeter=0;fontFamily=Garamond;fontSize=18;" parent="1" source="zmOrE4_H3WfP_13LB3If-56" target="zmOrE4_H3WfP_13LB3If-60" edge="1">
          <mxGeometry relative="1" as="geometry" />
        </mxCell>
        <mxCell id="zmOrE4_H3WfP_13LB3If-63" value="" style="edgeStyle=orthogonalEdgeStyle;rounded=0;orthogonalLoop=1;jettySize=auto;html=1;fontFamily=Garamond;fontSize=18;" parent="1" source="zmOrE4_H3WfP_13LB3If-56" target="zmOrE4_H3WfP_13LB3If-62" edge="1">
          <mxGeometry relative="1" as="geometry" />
        </mxCell>
        <mxCell id="zmOrE4_H3WfP_13LB3If-56" value="输入程序" style="whiteSpace=wrap;html=1;fontFamily=Garamond;fontSize=18;" parent="1" vertex="1">
          <mxGeometry x="370" y="137" width="120" height="60" as="geometry" />
        </mxCell>
        <mxCell id="zmOrE4_H3WfP_13LB3If-60" value="存储旅客信息" style="shape=cylinder3;whiteSpace=wrap;html=1;boundedLbl=1;backgroundOutline=1;size=15;fontFamily=Garamond;fontSize=18;" parent="1" vertex="1">
          <mxGeometry x="610" y="107" width="130" height="120" as="geometry" />
        </mxCell>
        <mxCell id="zmOrE4_H3WfP_13LB3If-65" value="" style="edgeStyle=orthogonalEdgeStyle;rounded=0;orthogonalLoop=1;jettySize=auto;html=1;fontFamily=Garamond;fontSize=18;" parent="1" source="zmOrE4_H3WfP_13LB3If-62" edge="1">
          <mxGeometry relative="1" as="geometry">
            <mxPoint x="320" y="287" as="targetPoint" />
          </mxGeometry>
        </mxCell>
        <mxCell id="zmOrE4_H3WfP_13LB3If-75" value="" style="edgeStyle=orthogonalEdgeStyle;rounded=0;orthogonalLoop=1;jettySize=auto;html=1;fontFamily=Garamond;fontSize=18;" parent="1" source="zmOrE4_H3WfP_13LB3If-62" target="zmOrE4_H3WfP_13LB3If-74" edge="1">
          <mxGeometry relative="1" as="geometry" />
        </mxCell>
        <mxCell id="zmOrE4_H3WfP_13LB3If-62" value="安排航班" style="whiteSpace=wrap;html=1;fontSize=18;fontFamily=Garamond;" parent="1" vertex="1">
          <mxGeometry x="370" y="257" width="120" height="60" as="geometry" />
        </mxCell>
        <mxCell id="zmOrE4_H3WfP_13LB3If-64" value="取票通知和账单" style="shape=document;whiteSpace=wrap;html=1;boundedLbl=1;fontSize=18;fontFamily=Garamond;" parent="1" vertex="1">
          <mxGeometry x="200" y="257" width="120" height="80" as="geometry" />
        </mxCell>
        <mxCell id="zmOrE4_H3WfP_13LB3If-69" value="" style="edgeStyle=orthogonalEdgeStyle;rounded=0;orthogonalLoop=1;jettySize=auto;html=1;fontFamily=Garamond;fontSize=18;" parent="1" source="zmOrE4_H3WfP_13LB3If-66" target="zmOrE4_H3WfP_13LB3If-68" edge="1">
          <mxGeometry relative="1" as="geometry" />
        </mxCell>
        <mxCell id="zmOrE4_H3WfP_13LB3If-66" value="旅客交款取票" style="whiteSpace=wrap;html=1;fontSize=18;fontFamily=Garamond;" parent="1" vertex="1">
          <mxGeometry x="370" y="477" width="120" height="60" as="geometry" />
        </mxCell>
        <mxCell id="zmOrE4_H3WfP_13LB3If-73" value="" style="edgeStyle=orthogonalEdgeStyle;rounded=0;orthogonalLoop=1;jettySize=auto;html=1;fontFamily=Garamond;fontSize=18;" parent="1" source="zmOrE4_H3WfP_13LB3If-68" target="zmOrE4_H3WfP_13LB3If-72" edge="1">
          <mxGeometry relative="1" as="geometry" />
        </mxCell>
        <mxCell id="zmOrE4_H3WfP_13LB3If-68" value="系统校对" style="whiteSpace=wrap;html=1;fontSize=18;fontFamily=Garamond;" parent="1" vertex="1">
          <mxGeometry x="370" y="617" width="120" height="60" as="geometry" />
        </mxCell>
        <mxCell id="zmOrE4_H3WfP_13LB3If-72" value="机票" style="shape=document;whiteSpace=wrap;html=1;boundedLbl=1;fontSize=18;fontFamily=Garamond;" parent="1" vertex="1">
          <mxGeometry x="370" y="747" width="120" height="80" as="geometry" />
        </mxCell>
        <mxCell id="zmOrE4_H3WfP_13LB3If-76" value="" style="edgeStyle=orthogonalEdgeStyle;rounded=0;orthogonalLoop=1;jettySize=auto;html=1;fontFamily=Garamond;fontSize=18;" parent="1" source="zmOrE4_H3WfP_13LB3If-74" target="zmOrE4_H3WfP_13LB3If-66" edge="1">
          <mxGeometry relative="1" as="geometry" />
        </mxCell>
        <mxCell id="zmOrE4_H3WfP_13LB3If-74" value="取票信息和账单" style="ellipse;whiteSpace=wrap;html=1;aspect=fixed;fontFamily=Garamond;fontSize=18;" parent="1" vertex="1">
          <mxGeometry x="390" y="357" width="80" height="80" as="geometry" />
        </mxCell>
        <mxCell id="zmOrE4_H3WfP_13LB3If-80" value="&lt;font size=&quot;1&quot; color=&quot;#3333ff&quot;&gt;&lt;b style=&quot;font-size: 20px;&quot;&gt;第3题 系统流程图&lt;/b&gt;&lt;/font&gt;" style="text;html=1;strokeColor=none;fillColor=none;align=center;verticalAlign=middle;whiteSpace=wrap;rounded=0;fontFamily=Garamond;fontSize=18;" parent="1" vertex="1">
          <mxGeometry x="10" y="10" width="260" height="30" as="geometry" />
        </mxCell>
        <mxCell id="zmOrE4_H3WfP_13LB3If-82" value="&lt;font size=&quot;1&quot; color=&quot;#3333ff&quot;&gt;&lt;b style=&quot;font-size: 20px;&quot;&gt;数据流图&lt;/b&gt;&lt;/font&gt;" style="text;html=1;strokeColor=none;fillColor=none;align=center;verticalAlign=middle;whiteSpace=wrap;rounded=0;fontFamily=Garamond;fontSize=18;" parent="1" vertex="1">
          <mxGeometry x="50" y="850" width="260" height="30" as="geometry" />
        </mxCell>
        <mxCell id="zmOrE4_H3WfP_13LB3If-85" value="" style="edgeStyle=orthogonalEdgeStyle;rounded=0;orthogonalLoop=1;jettySize=auto;html=1;fontFamily=Garamond;fontSize=18;fontColor=#000000;" parent="1" source="zmOrE4_H3WfP_13LB3If-83" target="zmOrE4_H3WfP_13LB3If-84" edge="1">
          <mxGeometry relative="1" as="geometry">
            <Array as="points">
              <mxPoint x="150" y="1040" />
              <mxPoint x="150" y="1040" />
            </Array>
          </mxGeometry>
        </mxCell>
        <mxCell id="zmOrE4_H3WfP_13LB3If-83" value="&lt;font color=&quot;#000000&quot; style=&quot;font-size: 18px;&quot;&gt;旅客&lt;/font&gt;" style="whiteSpace=wrap;html=1;aspect=fixed;fontFamily=Garamond;fontSize=20;fontColor=#3333FF;" parent="1" vertex="1">
          <mxGeometry x="20" y="1000" width="80" height="80" as="geometry" />
        </mxCell>
        <mxCell id="zmOrE4_H3WfP_13LB3If-84" value="&lt;font color=&quot;#000000&quot; style=&quot;font-size: 18px;&quot;&gt;系统处理旅客信息&lt;/font&gt;" style="rounded=1;whiteSpace=wrap;html=1;fontSize=20;fontFamily=Garamond;fontColor=#3333FF;" parent="1" vertex="1">
          <mxGeometry x="240" y="1010" width="120" height="60" as="geometry" />
        </mxCell>
        <mxCell id="zmOrE4_H3WfP_13LB3If-86" value="预订机票" style="text;html=1;strokeColor=none;fillColor=none;align=center;verticalAlign=middle;whiteSpace=wrap;rounded=0;fontFamily=Garamond;fontSize=18;fontColor=#000000;" parent="1" vertex="1">
          <mxGeometry x="110" y="1010" width="120" height="30" as="geometry" />
        </mxCell>
        <mxCell id="zmOrE4_H3WfP_13LB3If-95" value="" style="edgeStyle=orthogonalEdgeStyle;rounded=0;orthogonalLoop=1;jettySize=auto;html=1;fontFamily=Garamond;fontSize=18;fontColor=#000000;" parent="1" source="zmOrE4_H3WfP_13LB3If-87" target="zmOrE4_H3WfP_13LB3If-94" edge="1">
          <mxGeometry relative="1" as="geometry" />
        </mxCell>
        <mxCell id="zmOrE4_H3WfP_13LB3If-87" value="&lt;p style=&quot;font-size: 18px;&quot;&gt;&lt;font color=&quot;#000000&quot;&gt;旅客交款&lt;/font&gt;&lt;/p&gt;" style="whiteSpace=wrap;html=1;fontSize=20;fontFamily=Garamond;fontColor=#3333FF;rounded=1;" parent="1" vertex="1">
          <mxGeometry x="480" y="1010" width="120" height="60" as="geometry" />
        </mxCell>
        <mxCell id="zmOrE4_H3WfP_13LB3If-89" value="" style="endArrow=classic;html=1;rounded=0;fontFamily=Garamond;fontSize=18;fontColor=#000000;exitX=1;exitY=0.25;exitDx=0;exitDy=0;entryX=0.003;entryY=0.389;entryDx=0;entryDy=0;entryPerimeter=0;" parent="1" source="zmOrE4_H3WfP_13LB3If-84" target="zmOrE4_H3WfP_13LB3If-87" edge="1">
          <mxGeometry width="50" height="50" relative="1" as="geometry">
            <mxPoint x="430" y="910" as="sourcePoint" />
            <mxPoint x="480" y="860" as="targetPoint" />
          </mxGeometry>
        </mxCell>
        <mxCell id="zmOrE4_H3WfP_13LB3If-90" value="" style="endArrow=classic;html=1;rounded=0;fontFamily=Garamond;fontSize=18;fontColor=#000000;exitX=1;exitY=0.75;exitDx=0;exitDy=0;entryX=0.003;entryY=0.622;entryDx=0;entryDy=0;entryPerimeter=0;" parent="1" source="zmOrE4_H3WfP_13LB3If-84" target="zmOrE4_H3WfP_13LB3If-87" edge="1">
          <mxGeometry width="50" height="50" relative="1" as="geometry">
            <mxPoint x="370" y="1035" as="sourcePoint" />
            <mxPoint x="440" y="1040" as="targetPoint" />
          </mxGeometry>
        </mxCell>
        <mxCell id="zmOrE4_H3WfP_13LB3If-91" value="取票通知" style="text;html=1;strokeColor=none;fillColor=none;align=center;verticalAlign=middle;whiteSpace=wrap;rounded=0;fontFamily=Garamond;fontSize=18;fontColor=#000000;" parent="1" vertex="1">
          <mxGeometry x="360" y="990" width="120" height="30" as="geometry" />
        </mxCell>
        <mxCell id="zmOrE4_H3WfP_13LB3If-93" value="账单" style="text;html=1;strokeColor=none;fillColor=none;align=center;verticalAlign=middle;whiteSpace=wrap;rounded=0;fontFamily=Garamond;fontSize=18;fontColor=#000000;" parent="1" vertex="1">
          <mxGeometry x="360" y="1060" width="120" height="30" as="geometry" />
        </mxCell>
        <mxCell id="zmOrE4_H3WfP_13LB3If-97" value="" style="edgeStyle=orthogonalEdgeStyle;rounded=0;orthogonalLoop=1;jettySize=auto;html=1;fontFamily=Garamond;fontSize=18;fontColor=#000000;" parent="1" source="zmOrE4_H3WfP_13LB3If-94" edge="1">
          <mxGeometry relative="1" as="geometry">
            <mxPoint x="860" y="1040" as="targetPoint" />
          </mxGeometry>
        </mxCell>
        <mxCell id="zmOrE4_H3WfP_13LB3If-94" value="&lt;font color=&quot;#000000&quot; style=&quot;font-size: 18px;&quot;&gt;系统确认无误&lt;/font&gt;" style="whiteSpace=wrap;html=1;fontSize=20;fontFamily=Garamond;fontColor=#3333FF;rounded=1;" parent="1" vertex="1">
          <mxGeometry x="660" y="1010" width="120" height="60" as="geometry" />
        </mxCell>
        <mxCell id="zmOrE4_H3WfP_13LB3If-98" value="&lt;font color=&quot;#000000&quot; style=&quot;font-size: 18px;&quot;&gt;旅客&lt;/font&gt;" style="whiteSpace=wrap;html=1;aspect=fixed;fontFamily=Garamond;fontSize=20;fontColor=#3333FF;" parent="1" vertex="1">
          <mxGeometry x="860" y="1000" width="80" height="80" as="geometry" />
        </mxCell>
        <mxCell id="zmOrE4_H3WfP_13LB3If-100" value="机票" style="text;html=1;strokeColor=none;fillColor=none;align=center;verticalAlign=middle;whiteSpace=wrap;rounded=0;fontFamily=Garamond;fontSize=18;fontColor=#000000;" parent="1" vertex="1">
          <mxGeometry x="760" y="1010" width="120" height="30" as="geometry" />
        </mxCell>
        <mxCell id="pXirkdXGKXi7VOVAZmoI-1" value="&lt;font style=&quot;font-size: 20px;&quot; face=&quot;Times New Roman&quot;&gt;*&lt;/font&gt;" style="text;html=1;strokeColor=none;fillColor=none;align=center;verticalAlign=middle;whiteSpace=wrap;rounded=0;fontFamily=Garamond;fontSize=18;fontColor=#000000;" parent="1" vertex="1">
          <mxGeometry x="360" y="1030" width="20" height="20" as="geometry" />
        </mxCell>
      </root>
    </mxGraphModel>
  </diagram>
</mxfile>
